<svg xmlns="http://www.w3.org/2000/svg" width="129" height="100" viewBox="0 0 129 100">
  <path fill="#FFF" d="M0.322907354,45.7907175 C0.396513335,46.300939 0.712862821,46.7441696 1.17329198,46.9817537 C1.63372129,47.2185589 2.17871913,47.2201169 2.64228058,46.9848696 C3.97345361,46.3071707 5.33594845,45.7868225 6.69217886,45.4394045 C13.1679443,43.7856634 19.8833209,45.5554702 23.8110646,49.9542812 C24.1195835,50.2993624 24.5580876,50.4902086 25.0106865,50.4902086 C25.1406717,50.4902086 25.273789,50.4746293 25.4037741,50.4419129 C25.9832259,50.2962465 26.4342587,49.8405525 26.5720742,49.261003 C27.9181252,43.5852748 33.4233088,40.6555904 38.3541305,39.1485866 L44.9216099,65.1733922 C44.6003665,65.1360993 44.2690414,65.1090304 43.9117781,65.1090304 C40.6762445,65.1090304 38.9833055,66.7464132 37.623943,68.0628627 C36.3945654,69.2523412 35.5065947,70.1123177 33.5724786,70.1123177 C31.6399285,70.1123177 30.7519577,69.2523412 29.5225803,68.0628627 C28.1632177,66.7464132 26.4718447,65.1090304 23.2378773,65.1090304 C20.0007776,65.1090304 18.3078386,66.7464132 16.9469099,68.0628627 C15.7175323,69.2523412 14.8279955,70.1123177 12.8938793,70.1123177 C10.9597631,70.1123177 10.0702263,69.2523412 8.84084873,68.0620839 C7.48148619,66.7464134 5.78854719,65.1090305 2.55144747,65.1090305 C1.66504277,65.1090305 0.947775436,65.8233407 0.947775436,66.7043493 C0.947775436,67.5853578 1.66504277,68.299668 2.55144747,68.299668 C4.48556367,68.299668 5.3751005,69.1596445 6.60447805,70.3499018 C7.96384059,71.6655724 9.65677958,73.3029552 12.8938793,73.3029552 C16.130979,73.3029552 17.8223519,71.6655724 19.1832806,70.3499018 C20.4142241,69.1596444 21.3021949,68.299668 23.2378771,68.299668 C25.1688612,68.299668 26.0568319,69.1588656 27.2862094,70.349123 C28.645572,71.6647935 30.336945,73.3029554 33.5724786,73.3029554 C36.8080121,73.3029554 38.5009511,71.6655725 39.8603137,70.349123 C41.0896912,69.1596445 41.9776619,68.299668 43.9117781,68.299668 C44.6801391,68.299668 45.2805372,68.4397842 45.806057,68.6779526 L51.0424612,89.4281966 C36.0142023,90.2569172 19.3463493,92.4584649 1.60396564,96.8564969 C0.745750606,97.0691541 0.222677852,97.9353623 0.435665544,98.7898862 C0.617331437,99.515102 1.27195533,100 1.99078881,100 C2.11920782,100 2.24919298,99.9848174 2.38074428,99.9521008 C72.2156499,82.6419576 125.105505,99.7417805 125.63171,99.9170473 C126.472699,100.196696 127.381028,99.7464541 127.661358,98.9098465 C127.941687,98.0747968 127.489088,97.1711982 126.649666,96.8915502 C126.259319,96.761171 97.4353111,87.4397929 54.3117636,89.2808748 L49.9582404,72.0294461 C51.032771,72.7476511 52.3804859,73.3029552 54.2557761,73.3029552 C57.4928758,73.3029552 59.1858148,71.6655724 60.5467435,70.3491228 C61.776121,69.1596444 62.6656579,68.2996679 64.5997741,68.2996679 C66.5354562,68.2996679 67.4234271,69.1596444 68.6543706,70.3499017 C70.0152993,71.6655722 71.7066722,73.302955 74.9437719,73.302955 C78.1824376,73.302955 79.8753766,71.6655722 81.2363053,70.3499017 C82.4672488,69.1596442 83.3552197,68.2996679 85.2909018,68.2996679 C87.225018,68.2996679 88.1145549,69.1596444 89.3439324,70.3499017 C90.703295,71.6655722 92.3962339,73.302955 95.6333337,73.302955 C98.8704334,73.302955 100.564938,71.6655722 101.925867,70.3506807 C103.156811,69.1596444 104.046347,68.2996679 105.983596,68.2996679 C107.92241,68.2996679 108.813513,69.1596444 110.046023,70.3506807 C111.406951,71.6663512 113.101456,73.302955 116.340122,73.302955 C119.580354,73.302955 121.274859,71.6655722 122.635788,70.3506807 C123.868297,69.1596445 124.7594,68.299668 126.698215,68.299668 C127.584619,68.299668 128.301887,67.5853578 128.301887,66.7043493 C128.301887,65.8233407 127.584619,65.1090305 126.698215,65.1090305 C123.457983,65.1090305 121.763478,66.7464134 120.402549,68.0613049 C119.17004,69.2523413 118.278937,70.1123179 116.340122,70.1123179 C114.402874,70.1123179 113.511771,69.2523413 112.280827,68.0620841 C110.918332,66.7464135 109.223827,65.1090307 105.983596,65.1090307 C102.74493,65.1090307 101.050425,66.7464135 99.6894961,68.0620841 C98.4585525,69.2523415 97.5690157,70.1123179 95.6333333,70.1123179 C93.6992172,70.1123179 92.8096803,69.2523413 91.5803028,68.0620841 C90.2209402,66.7464135 88.5280012,65.1090307 85.2909015,65.1090307 C82.0538018,65.1090307 80.3608628,66.7464135 78.9999341,68.0620841 C77.7689906,69.2523415 76.8794537,70.1123179 74.9437714,70.1123179 C73.0096552,70.1123179 72.1201184,69.2523413 70.8907408,68.0628629 C69.5298121,66.7464134 67.8368731,65.1090305 64.5997734,65.1090305 C61.3626737,65.1090305 59.6713008,66.7464134 58.3103722,68.0620839 C57.0794286,69.2523413 56.1914578,70.1123177 54.2557756,70.1123177 C52.3200934,70.1123177 51.4321226,69.2523412 50.201179,68.0620839 C49.7272423,67.6039556 49.2075953,67.109216 48.6022053,66.6557613 L41.4595807,38.3521931 C46.420158,37.3178259 52.5449245,37.2094526 56.3981812,41.3381578 C56.7959671,41.7642511 57.3957779,41.9418551 57.9658333,41.7993046 C58.5327564,41.6567541 58.9775249,41.2174183 59.1247369,40.6534482 C60.5921595,35.0277685 65.6318241,30.3454145 71.9619435,28.723611 C71.9619435,28.723611 71.9619435,28.723611 71.9635097,28.723611 C73.4356306,28.3458134 74.9844896,28.1440617 76.5662364,28.1230297 C77.0846109,28.1160191 77.5685314,27.8597397 77.8629557,27.4352043 C78.1589459,27.0106688 78.2294197,26.4700676 78.0524521,25.9839939 C71.9565603,9.24405243 52.8138021,0.258310585 33.0592916,4.55663518 L32.2146818,1.20514152 C32.000128,0.349059814 31.1293843,-0.159603902 30.2696031,0.0452637423 C29.4098219,0.260257832 28.8883153,1.12646614 29.1044351,1.98098986 L29.944053,5.3124251 C10.451079,10.9495946 -2.21562016,28.1128058 0.322907354,45.7907175 Z M39.1070264,35.6197814 C32.4208182,37.33175 27.6977965,40.3375783 25.1727766,44.411756 C23.4956942,37.4747874 20.6110617,19.3960012 32.2848624,8.25652045 C47.9006971,12.4532877 53.9215147,29.9618721 55.6912896,36.7516164 C51.5300033,34.2970029 45.8928769,33.8811333 39.1070264,35.6197814 Z M74.2186738,25.0757215 C73.1787927,25.1925662 72.1561386,25.3795176 71.161674,25.6342389 L71.1632401,25.6342389 C65.7079754,27.0308244 61.1986267,30.2751131 58.4239137,34.5325422 C57.6345086,31.757482 56.3357339,27.9602261 54.2996264,23.9610238 C50.1956982,15.9021519 44.6232706,10.1340192 37.9845343,6.96879526 C53.6047736,5.245337 68.4778921,12.5076206 74.2186738,25.0757215 Z M26.6668225,9.83382582 C22.3206404,15.8090657 20.1518071,23.5660889 20.3672416,32.6332327 C20.4794126,37.3579429 21.2018676,41.4968721 21.8498356,44.3332756 C18.8113351,42.583235 15.2256836,41.6396172 11.503195,41.6396172 C9.64738303,41.6396172 7.76024945,41.8717485 5.89347497,42.3500326 C5.01646683,42.5735953 4.14102483,42.8586963 3.27341308,43.2006615 C2.32182024,29.1533073 11.8594796,15.7943628 26.6668225,9.83382582 Z"/>
</svg>
