<svg xmlns="http://www.w3.org/2000/svg" width="94" height="100" viewBox="0 0 94 100">
  <path fill="#789FCC" d="M30.6183511,0.348347368 C29.5221892,0.46753706 28.699687,1.39560507 28.7234043,2.48650526 C28.7234043,6.03132632 31.0661202,8.17121053 32.6795213,9.49308421 C33.4862223,10.1540211 34.1565096,10.6894105 34.5412234,11.2036105 C34.9259372,11.7178105 35.106383,12.1640947 35.106383,13.0128211 C35.106383,13.8615474 34.9259372,14.2749368 34.5412234,14.7891368 C34.1565096,15.3033368 33.4862223,15.8387263 32.6795213,16.4996632 C31.0661202,17.8215368 28.7234043,19.9943158 28.7234043,23.5391368 C28.7125471,24.2983739 29.1156854,25.0045805 29.7784484,25.3873341 C30.4412114,25.7700877 31.2609162,25.7700877 31.9236792,25.3873341 C32.5864422,25.0045805 32.9895806,24.2983739 32.9787234,23.5391368 C32.9787234,21.6152211 33.8274968,21.0491789 35.4055851,19.7562421 C36.1946298,19.1097684 37.1200862,18.3745684 37.9321809,17.2891368 C38.7442755,16.2037053 39.3617021,14.7264105 39.3617021,13.0128211 C39.3617021,11.2992316 38.7442755,9.78904211 37.9321809,8.70361053 C37.1200862,7.61817895 36.1946298,6.88297895 35.4055851,6.23650526 C33.8274968,4.94356842 32.9787234,4.41042105 32.9787234,2.48650526 C32.9919229,1.88019755 32.7402649,1.29770189 32.288199,0.888195163 C31.836133,0.478688436 31.2275658,0.281943764 30.6183511,0.348347368 Z M43.3843085,0.348347368 C42.2881466,0.46753706 41.4656445,1.39560507 41.4893617,2.48650526 C41.4893617,6.03132632 43.8320777,8.17121053 45.4454787,9.49308421 C46.2521798,10.1540211 46.922467,10.6894105 47.3071809,11.2036105 C47.6918947,11.7178105 47.8723404,12.1640947 47.8723404,13.0128211 C47.8723404,13.8615474 47.6918947,14.2749368 47.3071809,14.7891368 C46.922467,15.3033368 46.2521798,15.8387263 45.4454787,16.4996632 C43.8320777,17.8215368 41.4893617,19.9943158 41.4893617,23.5391368 C41.4785045,24.2983739 41.8816429,25.0045805 42.5444059,25.3873341 C43.2071689,25.7700877 44.0268737,25.7700877 44.6896367,25.3873341 C45.3523997,25.0045805 45.755538,24.2983739 45.7446809,23.5391368 C45.7446809,21.6152211 46.5934543,21.0491789 48.1715426,19.7562421 C48.9605872,19.1097684 49.8860436,18.3745684 50.6981383,17.2891368 C51.510233,16.2037053 52.1276596,14.7264105 52.1276596,13.0128211 C52.1276596,11.2992316 51.510233,9.78904211 50.6981383,8.70361053 C49.8860436,7.61817895 48.9605872,6.88297895 48.1715426,6.23650526 C46.5934543,4.94356842 45.7446809,4.41042105 45.7446809,2.48650526 C45.7578803,1.88019755 45.5062223,1.29770189 45.0541564,0.888195163 C44.6020905,0.478688436 43.9935232,0.281943764 43.3843085,0.348347368 Z M8.31117021,28.8022947 C7.21466902,28.9045491 6.37822987,29.817801 6.38297872,30.9075579 L6.38297872,49.9207158 C6.38297872,65.5955484 17.2244181,78.7576358 31.9148936,82.4865053 L2.12765957,82.4865053 C2.06120677,82.48342 1.99464429,82.48342 1.92819149,82.4865053 C0.831690296,82.5887596 -0.00474885547,83.5020115 -2.01200342e-05,84.5917684 L-2.01200342e-05,86.8944 C-2.01200342e-05,93.7012421 5.43903298,99.3286105 12.2007979,99.3286105 L68.650266,99.3286105 C75.4120383,99.3286105 80.8510638,93.7012421 80.8510638,86.8944 L80.8510638,84.5917684 C80.8509462,83.4291119 79.8984295,82.4866216 78.7234043,82.4865053 L48.9361702,82.4865053 C57.4845032,80.3166905 64.7186479,74.9427095 69.2819149,67.7496632 L78.6569149,67.7496632 C86.900116,67.7496632 93.6170213,61.1489263 93.6170213,53.0128211 C93.6170213,44.8765474 86.9000904,38.2759789 78.6569149,38.2759789 L74.4680851,38.2759789 L74.4680851,30.9075579 C74.4679675,29.7449014 73.5154508,28.8024111 72.3404255,28.8022947 L8.5106383,28.8022947 C8.44418549,28.7992095 8.37762302,28.7992095 8.31117021,28.8022947 Z M10.6382979,33.0128211 L70.212766,33.0128211 L70.212766,49.9207158 C70.212766,66.2315579 56.9650202,79.3286105 40.4255319,79.3286105 C23.886066,79.3286105 10.6382979,66.2315579 10.6382979,49.9207158 L10.6382979,33.0128211 Z M74.4680851,42.4865053 L78.6569149,42.4865053 C84.6285926,42.4865053 89.3617021,47.1479579 89.3617021,53.0128211 C89.3617021,58.8774526 84.628567,63.5391368 78.6569149,63.5391368 L71.5757979,63.5391368 C73.440434,59.3793937 74.4680851,54.7655895 74.4680851,49.9207158 L74.4680851,42.4865053 Z M4.25531915,86.6970316 L76.5957447,86.6970316 L76.5957447,86.8944 C76.5957447,91.5128211 73.0552383,95.1180842 68.650266,95.1180842 L12.2007979,95.1180842 C7.79583936,95.1180842 4.25531915,91.5128211 4.25531915,86.8944 L4.25531915,86.6970316 Z"/>
</svg>
