<svg xmlns="http://www.w3.org/2000/svg" width="66" height="92" viewBox="0 0 66 92">
  <path fill="#789FCC" d="M32.8055556,0.245454545 C50.881684,0.245454545 65.5855035,14.6863636 65.5809039,32.4318182 C65.5809039,37.2136364 64.5043403,41.8590909 62.3834201,46.2363636 C52.7934566,67.9611818 34.914374,89.2669164 34.0298412,90.3158068 L33.9971354,90.3545455 L32.8055556,91.7545455 L31.6139757,90.3590909 C31.4299479,90.1454545 12.9581597,68.4090909 3.14947917,46.1909091 C1.08376736,41.9318182 0.0256076389,37.2863636 0.0256076389,32.4363636 C0.0256076389,14.6863636 14.7294271,0.245454545 32.8055556,0.245454545 Z M32.8055556,3.32727273 C16.4500868,3.32727273 3.14487847,16.3863636 3.14487847,32.4363636 C3.14487847,36.8181818 4.10182292,41.0136364 5.98810764,44.9045455 C14.2003472,63.4954545 28.5867187,81.7636364 32.8055556,86.9272727 C37.015191,81.7590909 51.3601562,63.5 59.5493924,44.9545455 C61.4908854,40.9454545 62.4616319,36.75 62.4616319,32.4363636 C62.4616319,16.3863636 49.1610243,3.32727273 32.8055556,3.32727273 Z M32.8055556,15.1045455 C42.2737847,15.1045455 49.9753472,22.7136364 49.9753472,32.0681818 C49.9753472,41.4227273 42.2737847,49.0318182 32.8055556,49.0318182 C23.3373264,49.0318182 15.6357639,41.4227273 15.6357639,32.0681818 C15.6357639,22.7136364 23.3373264,15.1045455 32.8055556,15.1045455 Z M32.8055556,18.1863636 C25.0579861,18.1863636 18.7550347,24.4136364 18.7550347,32.0681818 C18.7550347,39.7227273 25.0579861,45.95 32.8055556,45.95 C40.553125,45.95 46.8560764,39.7227273 46.8560764,32.0681818 C46.8560764,24.4136364 40.553125,18.1863636 32.8055556,18.1863636 Z"/>
</svg>
