<svg xmlns="http://www.w3.org/2000/svg" xmlns:xlink="http://www.w3.org/1999/xlink" width="1340" height="252" viewBox="0 0 1340 252">
  <defs>
    <rect id="logotipo-contrast-a" width="123" height="55" x="0" y=".762"/>
  </defs>
  <g fill="none" fill-rule="evenodd">
    <path fill="#FDFD97" fill-rule="nonzero" d="M30.6,198 C35.4,198 39.3333333,197.066667 42.4,195.2 C45.4666667,193.333333 47.0666667,190.533333 47.2,186.8 C51.2,187.2 56.5333333,187.4 63.2,187.4 C81.0666667,187.4 96.3333333,185.3 109,181.1 C121.666667,176.9 131.3,170.933333 137.9,163.2 C144.5,155.466667 147.8,146.333333 147.8,135.8 C147.8,129.133333 145.666667,123.233333 141.4,118.1 C137.133333,112.966667 130.866667,109.266667 122.6,107 C137.933333,103.4 149.6,97.5 157.6,89.3 C165.6,81.1 169.6,71.3333333 169.6,60 C169.6,46.6666667 163.666667,35.9333333 151.8,27.8 C139.933333,19.6666667 121.933333,15.6 97.8,15.6 C82.0666667,15.6 66.6666667,17.4 51.6,21 C36.5333333,24.6 23.4,29.6 12.2,36 C6.86666667,39.0666667 3.5,41.8 2.1,44.2 C0.7,46.6 0,49.4666667 0,52.8 C0,55.3333333 0.633333333,57.4333333 1.9,59.1 C3.16666667,60.7666667 5,61.6 7.4,61.6 C10.3333333,61.6 13.9333333,60.3333333 18.2,57.8 C27.5333333,52.2 38.8666667,47.5666667 52.2,43.9 C65.5333333,40.2333333 79.3333333,38.4 93.6,38.4 C109.333333,38.4 121,40.6333333 128.6,45.1 C136.2,49.5666667 140,55.6666667 140,63.4 C140,69.5333333 137.8,74.9 133.4,79.5 C129,84.1 122.966667,87.6666667 115.3,90.2 C107.633333,92.7333333 99.0666667,94.1333333 89.6,94.4 C85.3333333,94.5333333 82.4,95.8 80.8,98.2 C79.2,100.6 78.4,103.733333 78.4,107.6 C78.4,110.266667 78.9333333,112.2 80,113.4 C81.0666667,114.6 82.9333333,115.266667 85.6,115.4 C97.3333333,115.8 105.7,118 110.7,122 C115.7,126 118.2,130.933333 118.2,136.8 C118.2,145.2 113.833333,152.1 105.1,157.5 C96.3666667,162.9 82.6666667,165.6 64,165.6 C60,165.6 54.8,165.333333 48.4,164.8 C49.8666667,148.666667 52.3333333,131.7 55.8,113.9 C59.2666667,96.1 62.7333333,82 66.2,71.6 C67,69.2 67.4,67.0666667 67.4,65.2 C67.4,60.6666667 63.3333333,58.4 55.2,58.4 C50.6666667,58.4 47,59.0666667 44.2,60.4 C41.4,61.7333333 39.5333333,64.0666667 38.6,67.4 C33.2666667,86.4666667 28.8666667,106.233333 25.4,126.7 C21.9333333,147.166667 19.6,166.733333 18.4,185.4 C18.1333333,189.533333 18.9,192.666667 20.7,194.8 C22.5,196.933333 25.8,198 30.6,198 Z M212.2,189 C222.466667,189 232.1,186.466667 241.1,181.4 C250.1,176.333333 257.066667,170.8 262,164.8 C264.533333,161.866667 265.8,157.733333 265.8,152.4 C265.8,149.6 265.3,147.4 264.3,145.8 C263.3,144.2 261.933333,143.4 260.2,143.4 C258.2,143.4 256.4,144.333333 254.8,146.2 C249.2,153 242.566667,158.5 234.9,162.7 C227.233333,166.9 220.4,169 214.4,169 C205.066667,169 198.733333,165.933333 195.4,159.8 C211.133333,155.933333 222.3,150.7 228.9,144.1 C235.5,137.5 238.8,129.6 238.8,120.4 C238.8,112.533333 236.466667,106.3 231.8,101.7 C227.133333,97.1 220.933333,94.8 213.2,94.8 C204.533333,94.8 196.766667,97.1333333 189.9,101.8 C183.033333,106.466667 177.666667,112.766667 173.8,120.7 C169.933333,128.633333 168,137.2 168,146.4 C168,159.6 171.866667,170 179.6,177.6 C187.333333,185.2 198.2,189 212.2,189 Z M192.2,144.2 L192.2,143.8 C192.2,135.666667 193.9,128.733333 197.3,123 C200.7,117.266667 204.866667,114.4 209.8,114.4 C212.2,114.4 214.1,115.166667 215.5,116.7 C216.9,118.233333 217.6,120.266667 217.6,122.8 C217.6,127.733333 215.333333,132.066667 210.8,135.8 C206.266667,139.533333 200.066667,142.333333 192.2,144.2 L192.2,144.2 Z M320.8,189 C326.533333,189 332.466667,186.666667 338.6,182 C344.733333,177.333333 350.533333,171.6 356,164.8 C358.533333,161.866667 359.8,157.733333 359.8,152.4 C359.8,149.6 359.3,147.4 358.3,145.8 C357.3,144.2 355.933333,143.4 354.2,143.4 C352.2,143.4 350.4,144.333333 348.8,146.2 C342.666667,153.533333 337.8,158.833333 334.2,162.1 C330.6,165.366667 327.533333,167 325,167 C323.4,167 322.1,166.4 321.1,165.2 C320.1,164 319.6,162.4 319.6,160.4 C319.6,154.4 321.133333,143.733333 324.2,128.4 C326.2,117.866667 327.2,111.2 327.2,108.4 C327.2,103.733333 323.933333,101.4 317.4,101.4 C314.333333,101.4 311.4,101.666667 308.6,102.2 C307.933333,99.2666667 307.1,97.2333333 306.1,96.1 C305.1,94.9666667 303.133333,94.4 300.2,94.4 C291,94.4 282.3,97.3 274.1,103.1 C265.9,108.9 259.333333,116.566667 254.4,126.1 C249.466667,135.633333 247,145.733333 247,156.4 C247,166.133333 249.466667,174 254.4,180 C259.333333,186 265.933333,189 274.2,189 C284.733333,189 293.466667,183.4 300.4,172.2 C302.266667,177.4 305.033333,181.5 308.7,184.5 C312.366667,187.5 316.4,189 320.8,189 Z M281.4,168.8 C278.466667,168.8 276.166667,167.8 274.5,165.8 C272.833333,163.8 272,160.733333 272,156.6 C272,149.133333 273.4,142.066667 276.2,135.4 C279,128.733333 282.766667,123.366667 287.5,119.3 C292.233333,115.233333 297.4,113.133333 303,113 L303,113 L295.6,149.8 C294.4,155.533333 292.466667,160.133333 289.8,163.6 C287.133333,167.066667 284.333333,168.8 281.4,168.8 Z M381.8,189 C389.933333,189 398.366667,186.9 407.1,182.7 C415.833333,178.5 423.333333,172.533333 429.6,164.8 C432.133333,161.6 433.4,157.466667 433.4,152.4 C433.4,149.6 432.9,147.4 431.9,145.8 C430.9,144.2 429.533333,143.4 427.8,143.4 C425.8,143.4 424,144.333333 422.4,146.2 C416.266667,153.533333 410.033333,159.033333 403.7,162.7 C397.366667,166.366667 391.466667,168.2 386,168.2 C372.533333,168.2 365.8,160.466667 365.8,145 C365.8,139.4 366.6,134.266667 368.2,129.6 C369.8,124.933333 371.933333,121.233333 374.6,118.5 C377.266667,115.766667 380.133333,114.4 383.2,114.4 C384.8,114.4 386.033333,114.866667 386.9,115.8 C387.766667,116.733333 388.2,118.066667 388.2,119.8 C388.2,121.533333 387.866667,123.4 387.2,125.4 C387.066667,125.933333 386.866667,126.8 386.6,128 C386.333333,129.2 386.2,130.266667 386.2,131.2 C386.2,133.333333 386.966667,135 388.5,136.2 C390.033333,137.4 392.066667,138 394.6,138 C398.6,138 401.833333,136.066667 404.3,132.2 C406.766667,128.333333 408,123.6 408,118 C408,111.2 405.966667,105.633333 401.9,101.3 C397.833333,96.9666667 392.133333,94.8 384.8,94.8 C377.333333,94.8 370.2,97 363.4,101.4 C356.6,105.8 351.066667,112.066667 346.8,120.2 C342.533333,128.333333 340.4,137.8 340.4,148.6 C340.4,160.733333 344.033333,170.5 351.3,177.9 C358.566667,185.3 368.733333,189 381.8,189 Z M481.2,189 C485.866667,189 489.233333,187.9 491.3,185.7 C493.366667,183.5 494.4,179.866667 494.4,174.8 C494.4,165.866667 494.8,157.766667 495.6,150.5 C496.4,143.233333 497.466667,135.533333 498.8,127.4 C500.266667,117.8 501,111.266667 501,107.8 C501,103.533333 499.9,100.3 497.7,98.1 C495.5,95.9 492.266667,94.8 488,94.8 C483.6,94.8 478.766667,96.3333333 473.5,99.4 C468.233333,102.466667 462.9,107.566667 457.5,114.7 C452.1,121.833333 447.2,131.066667 442.8,142.4 C442.8,135.066667 443,127.933333 443.4,121 C461.133333,101.666667 473.933333,84.7666667 481.8,70.3 C489.666667,55.8333333 493.6,41.8666667 493.6,28.4 C493.6,20 491.7,13.1666667 487.9,7.9 C484.1,2.63333333 479.133333,4.54747351e-13 473,4.54747351e-13 C461.533333,4.54747351e-13 451.7,7.56666667 443.5,22.7 C435.3,37.8333333 429.1,56.5333333 424.9,78.8 C420.7,101.066667 418.6,122.466667 418.6,143 C418.6,155.133333 418.933333,164.333333 419.6,170.6 C420.266667,176.866667 421.566667,181.5 423.5,184.5 C425.433333,187.5 428.466667,189 432.6,189 C436.733333,189 439.766667,187.9 441.7,185.7 C443.633333,183.5 445.333333,179.266667 446.8,173 C448.8,164.866667 451.4,157.133333 454.6,149.8 C457.8,142.466667 461,136.566667 464.2,132.1 C467.4,127.633333 469.866667,125.4 471.6,125.4 C473.066667,125.4 473.8,126.466667 473.8,128.6 C473.8,131.533333 473,138.333333 471.4,149 C469.533333,161.266667 468.6,170.066667 468.6,175.4 C468.6,179.933333 469.6,183.333333 471.6,185.6 C473.6,187.866667 476.8,189 481.2,189 Z M445.6,96 C447.333333,82.2666667 449.566667,69.5666667 452.3,57.9 C455.033333,46.2333333 457.866667,36.9666667 460.8,30.1 C463.733333,23.2333333 466.4,19.8 468.8,19.8 C470.533333,19.8 471.866667,20.9333333 472.8,23.2 C473.733333,25.4666667 474.2,28.7333333 474.2,33 C474.2,42.3333333 471.5,52.7333333 466.1,64.2 C460.7,75.6666667 453.866667,86.2666667 445.6,96 Z M634.6,189 C650.066667,189 664.166667,184.8 676.9,176.4 C689.633333,168 699.7,156.066667 707.1,140.6 C714.5,125.133333 718.2,107.266667 718.2,87 C718.2,72.6 715.4,60.2333333 709.8,49.9 C704.2,39.5666667 696.633333,31.7333333 687.1,26.4 C677.566667,21.0666667 666.866667,18.4 655,18.4 C639.533333,18.4 625.433333,22.6 612.7,31 C599.966667,39.4 589.9,51.3333333 582.5,66.8 C575.1,82.2666667 571.4,100.133333 571.4,120.4 C571.4,134.8 574.2,147.166667 579.8,157.5 C585.4,167.833333 592.966667,175.666667 602.5,181 C612.033333,186.333333 622.733333,189 634.6,189 Z M636.6,165.4 C626.066667,165.4 617.466667,161.3 610.8,153.1 C604.133333,144.9 600.8,132.866667 600.8,117 C600.8,102.466667 603,89.5 607.4,78.1 C611.8,66.7 617.933333,57.8333333 625.8,51.5 C633.666667,45.1666667 642.733333,42 653,42 C663.533333,42 672.133333,46.1 678.8,54.3 C685.466667,62.5 688.8,74.5333333 688.8,90.4 C688.8,104.8 686.666667,117.7 682.4,129.1 C678.133333,140.5 672.033333,149.4 664.1,155.8 C656.166667,162.2 647,165.4 636.6,165.4 Z M771,189 C778.333333,189 785.2,186.766667 791.6,182.3 C798,177.833333 803.166667,171.6 807.1,163.6 C811.033333,155.6 813,146.6 813,136.6 C813,129.4 811.7,122.733333 809.1,116.6 C806.5,110.466667 802.766667,105.466667 797.9,101.6 C793.033333,97.7333333 787.333333,95.5333333 780.8,95 C790.4,83.1333333 797.266667,71.8 801.4,61 C805.533333,50.2 807.6,39.3333333 807.6,28.4 C807.6,20 805.733333,13.1666667 802,7.9 C798.266667,2.63333333 793.333333,4.54747351e-13 787.2,4.54747351e-13 C775.866667,4.54747351e-13 766.1,7.1 757.9,21.3 C749.7,35.5 743.466667,52.7 739.2,72.9 C734.933333,93.1 732.8,111.8 732.8,129 C732.8,148.466667 735.833333,163.333333 741.9,173.6 C747.966667,183.866667 757.666667,189 771,189 Z M759.2,108.6 C760.533333,92.4666667 762.533333,77.6 765.2,64 C767.866667,50.4 770.766667,39.6333333 773.9,31.7 C777.033333,23.7666667 779.933333,19.8 782.6,19.8 C784.333333,19.8 785.7,20.9333333 786.7,23.2 C787.7,25.4666667 788.2,28.7333333 788.2,33 C788.2,42.6 785.566667,53.5666667 780.3,65.9 C775.033333,78.2333333 768,92.4666667 759.2,108.6 Z M771.8,167.4 C767.8,167.4 764.466667,165.566667 761.8,161.9 C759.133333,158.233333 757.8,152.4 757.8,144.4 C757.8,135.2 759.4,128.2 762.6,123.4 C765.8,118.6 769.733333,116.2 774.4,116.2 C778.133333,116.2 781.333333,118.066667 784,121.8 C786.666667,125.533333 788,131.066667 788,138.4 C788,147.866667 786.433333,155.066667 783.3,160 C780.166667,164.933333 776.333333,167.4 771.8,167.4 Z M863.6,193.4 C870.933333,193.4 877.266667,191.133333 882.6,186.6 C891.533333,186.333333 899.033333,184.7 905.1,181.7 C911.166667,178.7 917.533333,173.066667 924.2,164.8 C926.733333,161.6 928,157.466667 928,152.4 C928,149.6 927.5,147.4 926.5,145.8 C925.5,144.2 924.133333,143.4 922.4,143.4 C920.4,143.4 918.6,144.333333 917,146.2 C908.2,157.133333 900.533333,163.866667 894,166.4 C894.266667,164 894.4,162.133333 894.4,160.8 C894.4,156.133333 893.3,151.833333 891.1,147.9 C888.9,143.966667 885.666667,139.2 881.4,133.6 C878.466667,130 876.3,127 874.9,124.6 C873.5,122.2 872.8,120 872.8,118 C872.8,114.666667 874,110.6 876.4,105.8 C877.333333,104.066667 878.066667,102.333333 878.6,100.6 C879.133333,98.8666667 879.4,97.6 879.4,96.8 C879.4,95.3333333 878.666667,94.2666667 877.2,93.6 C875.733333,92.9333333 873.133333,92.6 869.4,92.6 C861.4,92.6 856.133333,95.5333333 853.6,101.4 C850.666667,108.333333 847.666667,115.033333 844.6,121.5 C841.533333,127.966667 838.866667,133.133333 836.6,137 C832.866667,142.866667 827.333333,150.333333 820,159.4 L820,159.4 L817.4,162.6 C815.533333,164.866667 814.6,167.333333 814.6,170 C814.6,172.266667 815.266667,174.166667 816.6,175.7 C817.933333,177.233333 819.666667,178 821.8,178 C824.466667,178 827,176.8 829.4,174.4 C834.2,169.733333 838.633333,164.8 842.7,159.6 C846.766667,154.4 850.866667,147.866667 855,140 C856.866667,142.133333 858.866667,144.633333 861,147.5 C863.133333,150.366667 864.9,153.333333 866.3,156.4 C867.7,159.466667 868.466667,162.733333 868.6,166.2 C867.4,166.066667 865.633333,165.833333 863.3,165.5 C860.966667,165.166667 858.933333,165 857.2,165 C852.266667,165 848.533333,166.266667 846,168.8 C843.466667,171.333333 842.2,174.333333 842.2,177.8 C842.2,181.8 844.033333,185.4 847.7,188.6 C851.366667,191.8 856.666667,193.4 863.6,193.4 Z M975.6,189 C984,189 991.5,186.733333 998.1,182.2 C1004.7,177.666667 1010.86667,171.866667 1016.6,164.8 C1019.13333,161.866667 1020.4,157.733333 1020.4,152.4 C1020.4,149.6 1019.9,147.4 1018.9,145.8 C1017.9,144.2 1016.53333,143.4 1014.8,143.4 C1012.8,143.4 1011,144.333333 1009.4,146.2 C1003.26667,153.533333 998.366667,158.833333 994.7,162.1 C991.033333,165.366667 987.866667,167 985.2,167 C983.466667,167 982.066667,166.3 981,164.9 C979.933333,163.5 979.4,161.533333 979.4,159 C979.4,155 981.266667,144.466667 985,127.4 C988.333333,112.466667 990,103.333333 990,100 C990,98 989.4,96.6333333 988.2,95.9 C987,95.1666667 984.866667,94.8 981.8,94.8 C977.4,94.8 974.1,95.6666667 971.9,97.4 C969.7,99.1333333 968.066667,102 967,106 C963.8,117.866667 960.5,127.866667 957.1,136 C953.7,144.133333 950.5,150.2 947.5,154.2 C944.5,158.2 942,160.2 940,160.2 C938.533333,160.2 937.466667,159.633333 936.8,158.5 C936.133333,157.366667 935.8,155.4 935.8,152.6 C935.8,147.933333 937.133333,138.6 939.8,124.6 C940.6,120.6 941.666667,116.133333 943,111.2 C944.466667,105.066667 945.2,101.466667 945.2,100.4 C945.2,98.5333333 944.633333,97.1333333 943.5,96.2 C942.366667,95.2666667 940.333333,94.8 937.4,94.8 C932.2,94.8 928.4,95.6666667 926,97.4 C923.6,99.1333333 921.733333,102 920.4,106 C917.333333,115.333333 915.133333,124.166667 913.8,132.5 C912.466667,140.833333 911.8,150 911.8,160 C911.8,168.266667 913.7,175.166667 917.5,180.7 C921.3,186.233333 926.2,189 932.2,189 C937.4,189 942.266667,186.566667 946.8,181.7 C951.333333,176.833333 954.733333,169.866667 957,160.8 C957,169.733333 958.5,176.666667 961.5,181.6 C964.5,186.533333 969.2,189 975.6,189 Z M1018.4,189 C1022.53333,189 1025.56667,187.9 1027.5,185.7 C1029.43333,183.5 1031.13333,179.266667 1032.6,173 C1034.6,164.866667 1037.2,157.133333 1040.4,149.8 C1043.6,142.466667 1046.83333,136.566667 1050.1,132.1 C1053.36667,127.633333 1056,125.4 1058,125.4 C1059.46667,125.4 1060.2,126.466667 1060.2,128.6 C1060.2,129.533333 1060.06667,131.333333 1059.8,134 C1059.4,136 1059.2,138 1059.2,140 C1059.2,146.133333 1061.03333,151 1064.7,154.6 C1068.36667,158.2 1073.73333,160 1080.8,160 C1086.4,160 1091.7,158.633333 1096.7,155.9 C1101.7,153.166667 1106.06667,149.866667 1109.8,146 C1112.46667,143.2 1113.8,139.333333 1113.8,134.4 C1113.8,131.866667 1113.3,129.833333 1112.3,128.3 C1111.3,126.766667 1109.93333,126 1108.2,126 C1106.33333,126 1104.53333,126.866667 1102.8,128.6 C1096.93333,134.466667 1092.13333,137.4 1088.4,137.4 C1085.06667,137.4 1083.4,135.066667 1083.4,130.4 C1083.4,129.066667 1083.93333,125.733333 1085,120.4 C1086.2,113.733333 1086.8,109.533333 1086.8,107.8 C1086.8,99.1333333 1082.46667,94.8 1073.8,94.8 C1069.4,94.8 1064.56667,96.3333333 1059.3,99.4 C1054.03333,102.466667 1048.66667,107.6 1043.2,114.8 C1037.73333,122 1032.8,131.333333 1028.4,142.8 C1028.93333,136.933333 1029.6,132 1030.4,128 C1031.2,124 1032.26667,119.333333 1033.6,114 C1035.6,106.533333 1036.6,101.733333 1036.6,99.6 C1036.6,97.7333333 1036.06667,96.4666667 1035,95.8 C1033.93333,95.1333333 1032.06667,94.8 1029.4,94.8 C1024.46667,94.8 1020.63333,95.7 1017.9,97.5 C1015.16667,99.3 1013.2,102.133333 1012,106 C1007.06667,121.6 1004.6,138.066667 1004.6,155.4 C1004.6,167.133333 1005.63333,175.666667 1007.7,181 C1009.76667,186.333333 1013.33333,189 1018.4,189 Z M1122.6,251.2 C1130.2,251.2 1136.33333,247.4 1141,239.8 C1145.66667,232.2 1148,221.2 1148,206.8 C1148,200.266667 1147.43333,191.966667 1146.3,181.9 C1145.16667,171.833333 1143.73333,162.666667 1142,154.4 C1148,155.6 1152.6,156.2 1155.8,156.2 C1172.33333,156.2 1180.6,150.933333 1180.6,140.4 C1180.6,134.8 1178.73333,132 1175,132 C1173.8,132 1172.6,132.066667 1171.4,132.2 C1170.2,132.333333 1169.06667,132.466667 1168,132.6 C1161.46667,133.533333 1155.53333,134 1150.2,134 C1148.6,134 1147.2,133.933333 1146,133.8 C1142.26667,133.533333 1139.06667,133.4 1136.4,133.4 C1134.93333,133.4 1133.26667,134.4 1131.4,136.4 C1129.53333,138.4 1127.96667,140.733333 1126.7,143.4 C1125.43333,146.066667 1124.86667,148.266667 1125,150 C1127.4,160.8 1129.3,171.066667 1130.7,180.8 C1132.1,190.533333 1132.8,200.6 1132.8,211 C1132.8,224.866667 1130.8,231.8 1126.8,231.8 C1124.66667,231.8 1123.13333,224.566667 1122.2,210.1 C1121.26667,195.633333 1120.8,181.533333 1120.8,167.8 C1120.8,157.933333 1121.46667,146.466667 1122.8,133.4 C1160.26667,96.4666667 1179,62.3333333 1179,31 C1179,21.5333333 1177.23333,14 1173.7,8.4 C1170.16667,2.8 1165.26667,4.54747351e-13 1159,4.54747351e-13 C1147.4,4.54747351e-13 1136.76667,8.63333333 1127.1,25.9 C1117.43333,43.1666667 1109.83333,64.9666667 1104.3,91.3 C1098.76667,117.633333 1096,143.6 1096,169.2 C1096,196.666667 1098.03333,217.2 1102.1,230.8 C1106.16667,244.4 1113,251.2 1122.6,251.2 Z M1126.4,106.8 C1128.93333,91.8666667 1131.93333,77.7 1135.4,64.3 C1138.86667,50.9 1142.36667,40.1333333 1145.9,32 C1149.43333,23.8666667 1152.4,19.8 1154.8,19.8 C1158.13333,19.8 1159.8,23.8666667 1159.8,32 C1159.66667,43.4666667 1156.73333,55.7666667 1151,68.9 C1145.26667,82.0333333 1137.06667,94.6666667 1126.4,106.8 Z M1210.6,189 C1220.86667,189 1230.5,186.466667 1239.5,181.4 C1248.5,176.333333 1255.46667,170.8 1260.4,164.8 C1262.93333,161.866667 1264.2,157.733333 1264.2,152.4 C1264.2,149.6 1263.7,147.4 1262.7,145.8 C1261.7,144.2 1260.33333,143.4 1258.6,143.4 C1256.6,143.4 1254.8,144.333333 1253.2,146.2 C1247.6,153 1240.96667,158.5 1233.3,162.7 C1225.63333,166.9 1218.8,169 1212.8,169 C1203.46667,169 1197.13333,165.933333 1193.8,159.8 C1209.53333,155.933333 1220.7,150.7 1227.3,144.1 C1233.9,137.5 1237.2,129.6 1237.2,120.4 C1237.2,112.533333 1234.86667,106.3 1230.2,101.7 C1225.53333,97.1 1219.33333,94.8 1211.6,94.8 C1202.93333,94.8 1195.16667,97.1333333 1188.3,101.8 C1181.43333,106.466667 1176.06667,112.766667 1172.2,120.7 C1168.33333,128.633333 1166.4,137.2 1166.4,146.4 C1166.4,159.6 1170.26667,170 1178,177.6 C1185.73333,185.2 1196.6,189 1210.6,189 Z M1190.6,144.2 L1190.6,143.8 C1190.6,135.666667 1192.3,128.733333 1195.7,123 C1199.1,117.266667 1203.26667,114.4 1208.2,114.4 C1210.6,114.4 1212.5,115.166667 1213.9,116.7 C1215.3,118.233333 1216,120.266667 1216,122.8 C1216,127.733333 1213.73333,132.066667 1209.2,135.8 C1204.66667,139.533333 1198.46667,142.333333 1190.6,144.2 L1190.6,144.2 Z M1262.2,189 C1266.46667,189 1269.53333,187.933333 1271.4,185.8 C1273.26667,183.666667 1274.93333,179.4 1276.4,173 C1278.4,164.866667 1281,157.133333 1284.2,149.8 C1287.4,142.466667 1290.6,136.566667 1293.8,132.1 C1297,127.633333 1299.53333,125.4 1301.4,125.4 C1302.06667,125.4 1302.63333,125.666667 1303.1,126.2 C1303.56667,126.733333 1303.8,127.533333 1303.8,128.6 C1303.8,129.4 1303.66667,130.866667 1303.4,133 C1303.13333,135.933333 1303,138.666667 1303,141.2 C1303,145.733333 1304.3,149.333333 1306.9,152 C1309.5,154.666667 1312.66667,156 1316.4,156 C1321.06667,156 1325.33333,154.333333 1329.2,151 C1333.06667,147.666667 1336.06667,143.533333 1338.2,138.6 C1339,136.6 1339.4,134.733333 1339.4,133 C1339.4,129.933333 1338.36667,127.366667 1336.3,125.3 C1334.23333,123.233333 1331.73333,122.2 1328.8,122.2 L1328.8,122.2 L1327,122.2 C1328.46667,115.133333 1329.2,110.333333 1329.2,107.8 C1329.2,103.533333 1328.16667,100.3 1326.1,98.1 C1324.03333,95.9 1321.06667,94.8 1317.2,94.8 C1312.93333,94.8 1308.2,96.3333333 1303,99.4 C1297.8,102.466667 1292.46667,107.6 1287,114.8 C1281.53333,122 1276.6,131.333333 1272.2,142.8 C1272.73333,136.933333 1273.4,132 1274.2,128 C1275,124 1276.06667,119.333333 1277.4,114 C1279.4,106.533333 1280.4,101.733333 1280.4,99.6 C1280.4,97.7333333 1279.86667,96.4666667 1278.8,95.8 C1277.73333,95.1333333 1275.86667,94.8 1273.2,94.8 C1268.26667,94.8 1264.43333,95.7 1261.7,97.5 C1258.96667,99.3 1257,102.133333 1255.8,106 C1250.86667,121.6 1248.4,138.066667 1248.4,155.4 C1248.4,167.133333 1249.43333,175.666667 1251.5,181 C1253.56667,186.333333 1257.13333,189 1262.2,189 Z"/>
    <path fill="#FFB449" d="M633.649107,167.117019 C670.652185,167.117019 680.843928,146.034243 688.944523,109.031165 C697.045118,72.0280864 689.560915,41.3548058 652.557836,41.3548058 C615.554758,41.3548058 602.690496,71.8223826 598.216268,106.296223 C593.74204,140.770064 596.646029,167.117019 633.649107,167.117019 Z"/>
    <g transform="translate(579 116)">
      <mask id="logotipo-contrast-b" fill="#fff">
        <use xlink:href="#logotipo-contrast-a"/>
      </mask>
      <path fill="#789FCC" d="M54.0302318,54.7622131 C91.03331,54.7622131 101.225053,33.6794371 109.325648,-3.3236411 C117.426243,-40.3267193 109.942039,-71 72.938961,-71 C35.9358828,-71 23.0716204,-40.5324231 18.5973925,-6.0585825 C14.1231645,28.4152581 17.0271535,54.7622131 54.0302318,54.7622131 Z" mask="url(#logotipo-contrast-b)"/>
    </g>
  </g>
</svg>
