<svg xmlns="http://www.w3.org/2000/svg" width="96" height="100" viewBox="0 0 96 100">
  <g fill="#789FCC">
    <path d="M94.554634,20.8108108 C94.6898666,21 94.8250992,21.2432432 94.9603318,21.4594595 C95.4471691,22.3783784 95.6905878,23.4054054 95.5824017,24.4054054 C95.4742157,25.3243243 95.1226109,26.2162162 94.3653083,26.9459459 C94.7169131,32.5405405 93.4186801,36.7297297 90.497656,39.5135135 C87.4684457,42.4324324 82.8434908,43.6486486 76.6768842,43.2972973 C72.6739993,43.8918919 69.7259286,44.9189189 68.2113235,46.5405405 C66.9130905,47.9459459 66.7237649,50.027027 67.9408583,53 C69.3202308,55.4864865 70.7536964,57.8648649 72.1601154,60.2702703 C77.9751172,70.1081081 83.844212,80 86.6840966,93.3243243 L86.6840966,93.3243243 C86.7922827,93.8108108 86.7111432,94.2702703 86.494771,94.7027027 C85.818608,96.2972973 84.5744681,97.5675676 83.059863,98.4324324 C81.76163,99.1891892 80.2470249,99.6486486 78.6783267,99.7837838 C77.1096286,99.9189189 75.4868374,99.7027027 73.9451857,99.0810811 C72.0248828,98.2972973 70.266859,96.9189189 69.0497656,94.8108108 L69.0497656,94.8108108 C68.968626,94.6756757 68.914533,94.5405405 68.86044,94.4054054 C67.4269744,90.8108108 65.6959971,86.8378378 63.8027407,83.2162162 C62.1258565,80.027027 60.3137396,77.0810811 58.3934367,74.972973 C54.1471331,75.5405405 50.4958529,76.4324324 48.0346195,78.027027 C46.1684097,79.2432432 45.0054093,80.972973 44.8972232,83.3783784 L52.686621,83.7837838 L52.5784349,85.8648649 L52.686621,83.7837838 C52.9029931,83.7837838 53.0923188,83.8378378 53.2545979,83.8918919 C55.5805986,84.6216216 57.365669,86.7027027 58.150018,89.1351351 C58.5557158,90.3513514 58.6909484,91.6486486 58.5557158,92.9189189 C58.4204832,94.2432432 57.9606924,95.5405405 57.0952038,96.6486486 C55.7158312,98.4594595 53.3898305,99.7297297 49.9278759,99.7297297 L20.0955644,99.7297297 C19.3923549,99.7297297 18.7973314,99.4054054 18.4186801,98.8648649 C3.43490804,81.972973 11.7381897,70.1081081 24.3959611,58.8378378 C26.9653805,56.5405405 29.5347999,54.4324324 32.1042193,52.2972973 C37.3782907,47.9459459 42.7064551,43.5405405 46.7904796,38.8378378 C46.5200144,35.2972973 46.4929679,32.0540541 46.8445727,29.1621622 C47.1691309,26.2702703 47.8723404,23.7027027 48.9812477,21.5135135 C48.0887126,18.5675676 47.7641543,15.4594595 48.0346195,12.2432432 C48.3321313,8.78378378 49.2787595,5.13513514 50.9015507,1.35135135 L52.8218536,2.16216216 L50.9015507,1.35135135 C51.3613415,0.297297297 52.5784349,-0.189189189 53.6332492,0.243243243 C53.9307609,0.378378378 54.1741796,0.540540541 54.3905517,0.783783784 C56.3919942,2.72972973 58.2041111,4.94594595 59.7998558,7.37837838 C61.2062748,9.48648649 62.4504147,11.7567568 63.559322,14.1891892 C67.0753696,14.2432432 69.9423008,14.7567568 72.2683015,15.6216216 C75,16.6486486 77.0014425,18.1621622 78.5430941,20 C79.2463036,20.6486486 80.4363505,20.9459459 81.8968626,21.0810811 C83.4926073,21.2162162 85.3588172,21.1081081 87.2520736,20.9459459 C88.0634692,20.0540541 88.9560043,19.4324324 89.929679,19.1351351 C91.4172376,18.7027027 92.8777497,19.0540541 94.2841688,20.4054054 L94.2841688,20.4054054 C94.3382618,20.5405405 94.4464479,20.6756757 94.554634,20.8108108 L94.554634,20.8108108 Z M91.282005,23.4324324 C91.2549585,23.3783784 91.227912,23.3243243 91.173819,23.2702703 C91.0656329,23.1621622 91.0115398,23.1351351 91.0115398,23.1351351 C90.7410746,23.2162162 90.3894699,23.5675676 89.9567256,24.1081081 C89.6321673,24.6216216 89.0641904,24.972973 88.4150739,25.027027 L88.4150739,25.027027 C85.9808871,25.2432432 83.6007934,25.4324324 81.4911648,25.2702703 C79.1381176,25.0810811 77.082582,24.4594595 75.5950234,23.027027 C75.4868374,22.9459459 75.4056978,22.8378378 75.3245607,22.7567568 L75.3245607,22.7567568 C74.2426974,21.4324324 72.7551388,20.3243243 70.7536964,19.5675676 C68.6440678,18.7567568 65.9123693,18.3243243 62.3692752,18.3783784 C61.47674,18.4594595 60.6112514,18 60.2326001,17.1351351 L60.2326001,17.1351351 C59.0695997,14.4324324 57.7713668,11.9459459 56.2838082,9.7027027 C55.4183195,8.40540541 54.4987378,7.18918919 53.5250631,6.02702703 C52.7677605,8.2972973 52.3079697,10.4864865 52.1456906,12.6216216 C51.9022719,15.5405405 52.1997836,18.3243243 53.0923188,20.9189189 C53.362784,21.5135135 53.3357375,22.2162162 52.9570862,22.8108108 L52.9570862,22.8108108 C51.8752254,24.5945946 51.2261089,26.9189189 50.9015507,29.6486486 C50.5769924,32.4864865 50.6040389,35.6756757 50.9285972,39.1891892 C51.0367833,39.7837838 50.9015507,40.4054054 50.4688063,40.8918919 L50.4688063,40.8918919 C46.0872701,46.1351351 40.3534079,50.8648649 34.7006852,55.5135135 C32.0230797,57.7297297 29.3725207,59.8918919 27.1006131,61.9459459 C16.282005,71.6216216 9.0605842,81.6756757 20.9880995,95.5945946 L49.981969,95.5945946 C51.9834115,95.5945946 53.2005049,95.027027 53.8496213,94.1891892 C54.2012261,93.7297297 54.4175983,93.1351351 54.4716913,92.5135135 C54.5528309,91.8378378 54.4446448,91.1081081 54.2282726,90.4324324 C53.8496213,89.2702703 53.0923188,88.2702703 52.1727371,87.9189189 L42.9498738,87.4324324 C41.8950595,87.4594595 40.9754778,86.6756757 40.8402452,85.6216216 L40.8402452,85.6216216 C40.1640822,80.4054054 42.1114317,76.9459459 45.7627119,74.5675676 C49.0082943,72.4594595 53.6332492,71.3513514 58.826181,70.7297297 C59.4752975,70.6216216 60.1514605,70.8108108 60.6382979,71.2972973 L60.6382979,71.2972973 C63.0995312,73.7567568 65.3984854,77.3513514 67.4540209,81.2972973 C69.4554634,85.1081081 71.2134872,89.1891892 72.6739993,92.8648649 C73.4042553,94.0540541 74.37793,94.8378378 75.4597908,95.2702703 C76.3793725,95.6216216 77.3530472,95.7567568 78.326722,95.6756757 C79.3003967,95.5945946 80.1929318,95.3243243 80.9772809,94.8918919 C81.5993509,94.5405405 82.1132348,94.0810811 82.4648395,93.5405405 C79.7060945,81.2432432 74.1345114,71.8108108 68.5899748,62.4324324 C67.1565092,60 65.6959971,57.5675676 64.3436711,55.1351351 C64.2895781,55.027027 64.235485,54.9459459 64.181392,54.8378378 L64.181392,54.8378378 C62.1799495,50.0810811 62.6667869,46.4864865 65.1550667,43.8378378 C67.3728814,41.4324324 71.1864407,40 76.1359538,39.2702703 C76.3252795,39.2432432 76.5146051,39.2162162 76.7039308,39.2432432 L76.7039308,39.2432432 C81.76163,39.5675676 85.4399567,38.7027027 87.6036783,36.6216216 C89.7133069,34.5945946 90.5787955,31.2162162 90.1460512,26.4594595 C89.9837721,25.5945946 90.3894699,24.7027027 91.227912,24.2702703 L91.227912,24.2702703 C91.2549585,24.2702703 91.2549585,24.2432432 91.282005,24.2432432 C91.3090516,24.2162162 91.3360981,24.2162162 91.3631446,24.1891892 L91.3631446,24.1891892 L91.3631446,24.1891892 L91.3631446,24.1891892 C91.4172376,24.1621622 91.4442842,24.1351351 91.4442842,24.1081081 C91.4713307,23.8378378 91.4172376,23.6486486 91.282005,23.4324324 L91.282005,23.4324324 Z"/>
    <ellipse cx="67.292" cy="25.568" rx="2.651" ry="2.649"/>
    <path d="M11.9816084,86.9189189 C12.9823296,87.4864865 14.253516,87.1351351 14.7944464,86.1351351 C15.3624234,85.1351351 15.0108186,83.8648649 14.0100974,83.3243243 C8.3844212,80.1621622 4.48972232,76.5945946 4.1922106,72.1621622 C3.86765236,67.4864865 7.22142084,61.5405405 16.173819,53.5405405 C17.0122611,52.7837838 17.0934006,51.4594595 16.3360981,50.6216216 C15.5787955,49.7837838 14.253516,49.7027027 13.4150739,50.4594595 C3.380815,59.4324324 -0.35160476,66.5405405 0.05409304,72.4594595 C0.48683736,78.5675676 5.19293184,83.1081081 11.9816084,86.9189189 L11.9816084,86.9189189 Z"/>
  </g>
</svg>
