<svg xmlns="http://www.w3.org/2000/svg" width="99" height="100" viewBox="0 0 99 100">
  <path d="M1.22649892,48.7781097 C2.72979047,48.7781097 3.41869658,49.4493681 4.37086324,50.3793797 C5.42144506,51.4031425 6.7266761,52.6781585 9.22027019,52.6781585 C11.7138643,52.6781585 13.0203255,51.4031425 14.0696771,50.3793797 C15.023074,49.4493681 15.7119801,48.7781097 17.2152717,48.7781097 C18.717333,48.7781097 19.4050089,49.4493681 20.3571756,50.3793797 C21.4065272,51.4031425 22.7117583,52.6781585 25.202892,52.6781585 C26.955912,52.6781585 28.1172109,52.0456506 29.0189398,51.3143914 C27.9658976,64.4295554 28.942668,80.4222553 34.1205356,99.0887386 C34.2201809,99.4449931 34.4699094,99.7399967 34.8020605,99.8912486 C34.9632154,99.9637495 35.1342117,100 35.305208,100 C35.4909666,100 35.6754951,99.9574995 35.8464914,99.8724984 L49.2198813,93.2174152 L62.1491728,99.8649983 C62.3238597,99.9549994 62.5133089,100 62.7052184,100 C62.8700638,100 63.0361394,99.9662496 63.1923735,99.8974987 C63.526985,99.7512469 63.7816342,99.4612433 63.8849701,99.1062388 C69.2732001,80.6897586 70.4517216,64.7420593 69.3949888,51.3468918 C70.291797,52.0631508 71.4432543,52.6781585 73.1716706,52.6781585 C75.6664948,52.6781585 76.9729561,51.4031425 78.0235379,50.3793797 C78.9769347,49.4493681 79.6658409,48.7781097 81.1715928,48.7781097 C82.6785749,48.7781097 83.3687112,49.4506181 84.3233382,50.3806298 C85.3739201,51.4031425 86.6816115,52.6781585 89.1776659,52.6781585 C91.6737204,52.6781585 92.9801816,51.4031425 94.0307635,50.3806298 C94.9853905,49.4506181 95.6755268,48.7781097 97.1825089,48.7781097 C97.8615735,48.7781097 98.4126984,48.2193527 98.4126984,47.5280941 C98.4126984,46.8368355 97.8615735,46.2780785 97.1825089,46.2780785 C94.6864545,46.2780785 93.378763,47.5530944 92.3281812,48.5768572 C91.3735542,49.5056188 90.6846481,50.1781272 89.1776659,50.1781272 C87.6706838,50.1781272 86.9805475,49.5056188 86.0259205,48.5756072 C84.9753387,47.5530944 83.6676472,46.2780785 81.1715928,46.2780785 C78.6767685,46.2780785 77.3703073,47.5530944 76.3197255,48.5768572 C75.3663286,49.5068688 74.6774225,50.1781272 73.1716706,50.1781272 C71.668379,50.1781272 70.9807031,49.5068688 70.0273062,48.5768572 C69.7099174,48.2668533 69.3900681,47.9605995 69.0468452,47.678096 C65.5666392,16.8127102 50.3319726,0.605007563 50.1080781,0.372504656 C50.1043875,0.368754609 50.100697,0.368754609 50.0970064,0.365004563 C50.094546,0.362504531 50.094546,0.3600045 50.0920856,0.357504469 C50.0465686,0.312503906 49.9887497,0.292503656 49.9395421,0.256253203 C49.8583496,0.196252453 49.7808477,0.127501594 49.6898137,0.0912511406 C49.6307646,0.0662508281 49.5667947,0.0675008438 49.5040551,0.0525006563 C49.4117909,0.0312503906 49.321987,0 49.2284926,0 C49.1534511,0 49.0808699,0.0275003438 49.0070585,0.0425005313 C48.9270962,0.0575007188 48.8446735,0.06000075 48.7684017,0.0912511406 C48.6945904,0.121251516 48.6343111,0.18000225 48.5666507,0.225002813 C48.5002204,0.268753359 48.4264091,0.297503719 48.3685902,0.356254453 C48.3661298,0.358754484 48.3648996,0.362504531 48.3624392,0.366254578 C48.3599788,0.368754609 48.3575185,0.368754609 48.3550581,0.371254641 C48.0216767,0.713758922 40.1349319,8.97511219 34.3887169,25.3440668 C32.312157,31.2603908 30.3856803,38.7242341 29.3769249,47.6468456 C29.0164794,47.9393492 28.6794075,48.2543532 28.3497167,48.5768572 C27.39755,49.5068688 26.7086439,50.1781272 25.2065825,50.1781272 C23.7045212,50.1781272 23.0168453,49.5068688 22.0646786,48.5768572 C21.015327,47.5530944 19.7100959,46.2780785 17.2189622,46.2780785 C14.7253681,46.2780785 13.4189069,47.5530944 12.3695553,48.5768572 C11.4161584,49.5068688 10.7272523,50.1781272 9.22396076,50.1781272 C7.72066921,50.1781272 7.0317631,49.5068688 6.07959643,48.5768572 C5.02901461,47.5530944 3.72378357,46.2780785 1.23018948,46.2780785 C0.551124889,46.2780785 0,46.8368355 0,47.5280941 C0,48.2193527 0.547434321,48.7781097 1.22649892,48.7781097 Z M61.9388104,96.9549619 L50.4586821,91.0523882 L50.4586821,4.6800585 C57.1558337,13.4814185 76.648186,44.8943112 61.9388104,96.9549619 Z M47.9995333,4.69005863 L47.9995333,91.041138 L36.0962199,96.9649621 C22.0954333,44.6593082 41.3552799,13.4589182 47.9995333,4.69005863 Z"/>
</svg>
