<svg xmlns="http://www.w3.org/2000/svg" width="179" height="96" viewBox="0 0 179 96">
  <path fill="#AFC9CF" d="M74.8636364,0.75518383 C64.7156771,0.75518383 56.5429844,3.77940128 50.2990057,8.83497106 C44.055027,13.8905409 39.724386,20.7692443 36.2620739,28.3176838 C31.9382767,37.9247906 28.9031094,46.6164732 24.7595881,52.3615668 C20.6160667,58.1066604 16.0075798,61.2884285 6.23863636,61.2884285 C4.7387188,61.2671592 3.34357069,62.0573127 2.58742152,63.3563238 C1.83127236,64.6553349 1.83127236,66.2619477 2.58742152,67.5609588 C3.34357069,68.8599698 4.7387188,69.6501233 6.23863636,69.628854 C18.131195,69.628854 26.2100253,64.5182583 31.453125,57.2485349 C36.6962247,49.978603 39.7323632,40.9544294 43.8654119,31.7711413 C47.0256119,24.881366 50.7451472,19.1865234 55.5628551,15.2857689 C60.380563,11.3850145 66.2956866,9.09560936 74.8636364,9.09560936 C79.3111332,9.09560936 84.8423103,10.061806 90.850142,11.5716732 C81.0019014,17.0984145 74.8636364,26.3629591 74.8636364,36.2019923 C74.8636364,47.7094317 82.0180817,59.2978087 96.568892,64.0251306 C93.4415635,70.2279364 90.2619655,76.0188836 86.431108,80.2498647 C81.8553614,85.303537 76.7191773,88.3296519 68.625,88.3296519 C67.1250824,88.3083826 65.7299343,89.0985361 64.9737852,90.3975472 C64.217636,91.6965583 64.217636,93.3031711 64.9737852,94.6021822 C65.7299343,95.9011932 67.1250824,96.6913467 68.625,96.6704963 C78.9845031,96.6704963 86.8501592,92.1376817 92.5397727,85.8535881 C98.2293862,79.5694945 102.116693,71.6538051 105.861861,64.0902902 C109.607029,56.5267753 113.245736,49.2707094 117.754261,44.21662 C122.262787,39.1623013 127.246885,36.2019923 135.170455,36.2019923 C140.71491,36.2019923 147.662995,37.2741123 153.821378,39.5902902 C145.001999,44.3662264 139.329545,53.1810136 139.329545,63.3083753 C139.329545,71.2330306 142.056114,79.2432796 148.297585,85.1368328 C154.539056,91.0301774 164.029792,94.5849711 176.761364,94.5849711 C178.261281,94.6062404 179.656429,93.8160869 180.412578,92.5170758 C181.168728,91.2180647 181.168728,89.6114519 180.412578,88.3124408 C179.656429,87.0134297 178.261281,86.2232762 176.761364,86.2445455 C165.544098,86.2445455 158.424019,83.2388647 154.016335,79.0769923 C149.608651,74.91512 147.647727,69.3756179 147.647727,63.3083753 C147.647727,53.8432434 154.218392,46.2787902 164.998935,44.4772583 C166.654164,44.2009561 167.981713,42.9544802 168.365251,41.3165213 C168.74879,39.6785625 168.113196,37.9699422 166.753551,36.9839072 C157.256799,29.8422928 144.639702,27.8615668 135.170455,27.8615668 C124.943697,27.8615668 117.18577,32.3944838 111.580611,38.6780562 C106.913969,43.9094317 103.520278,50.2663831 100.338068,56.5969391 C87.6406153,53.1662865 83.1818182,44.8458801 83.1818182,36.2019923 C83.1818182,27.4774694 90.8969859,17.7585591 104.692116,15.2857689 C106.545613,14.973335 107.95987,13.4534509 108.14237,11.5778231 C108.32487,9.70219535 107.230265,7.93688975 105.471946,7.27114128 C93.6230163,2.65915702 83.3169595,0.75518383 74.8636364,0.75518383 Z" transform="translate(-2 -.671)"/>
</svg>
